<svg width="27" height="25" viewBox="0 0 27 25" fill="none" xmlns="http://www.w3.org/2000/svg">
<path d="M24 20.1667V21.3333H2.99998V20.1667L5.33331 17.8333V10.8333C5.33331 7.21668 7.70165 4.03168 11.1666 3.00501V2.66668C11.1666 2.04784 11.4125 1.45435 11.8501 1.01676C12.2877 0.579176 12.8811 0.333344 13.5 0.333344C14.1188 0.333344 14.7123 0.579176 15.1499 1.01676C15.5875 1.45435 15.8333 2.04784 15.8333 2.66668V3.00501C19.2983 4.03168 21.6666 7.21668 21.6666 10.8333V17.8333L24 20.1667ZM15.8333 22.5C15.8333 23.1188 15.5875 23.7123 15.1499 24.1499C14.7123 24.5875 14.1188 24.8333 13.5 24.8333C12.8811 24.8333 12.2877 24.5875 11.8501 24.1499C11.4125 23.7123 11.1666 23.1188 11.1666 22.5M22.5416 1.72168L20.885 3.37834C21.8718 4.35292 22.6553 5.51374 23.1901 6.79348C23.7248 8.07321 24.0001 9.44639 24 10.8333H26.3333C26.3333 7.41501 24.98 4.12501 22.5416 1.72168ZM0.666648 10.8333H2.99998C2.99998 8.03334 4.11998 5.35001 6.11498 3.37834L4.45831 1.72168C3.25418 2.91351 2.2989 4.33276 1.64798 5.89696C0.997066 7.46116 0.663494 9.13912 0.666648 10.8333Z" fill="black"/>
</svg>
