<svg width="21" height="26" viewBox="0 0 21 26" fill="none" xmlns="http://www.w3.org/2000/svg">
<mask id="mask0_21_215" style="mask-type:luminance" maskUnits="userSpaceOnUse" x="0" y="0" width="21" height="26">
<path d="M18.6666 1.33333H2.33329C1.68896 1.33333 1.16663 1.85566 1.16663 2.49999V23.5C1.16663 24.1443 1.68896 24.6667 2.33329 24.6667H18.6666C19.311 24.6667 19.8333 24.1443 19.8333 23.5V2.49999C19.8333 1.85566 19.311 1.33333 18.6666 1.33333Z" fill="white" stroke="white" stroke-width="2" stroke-linejoin="round"/>
<path d="M8.75 7.16666H15.75M8.75 13H15.75M8.75 18.8333H15.75" stroke="black" stroke-width="2" stroke-linecap="round" stroke-linejoin="round"/>
<path fill-rule="evenodd" clip-rule="evenodd" d="M5.24992 8.33333C5.55934 8.33333 5.85608 8.21042 6.07488 7.99162C6.29367 7.77283 6.41659 7.47609 6.41659 7.16667C6.41659 6.85725 6.29367 6.5605 6.07488 6.34171C5.85608 6.12292 5.55934 6 5.24992 6C4.9405 6 4.64375 6.12292 4.42496 6.34171C4.20617 6.5605 4.08325 6.85725 4.08325 7.16667C4.08325 7.47609 4.20617 7.77283 4.42496 7.99162C4.64375 8.21042 4.9405 8.33333 5.24992 8.33333ZM5.24992 14.1667C5.55934 14.1667 5.85608 14.0437 6.07488 13.825C6.29367 13.6062 6.41659 13.3094 6.41659 13C6.41659 12.6906 6.29367 12.3938 6.07488 12.175C5.85608 11.9562 5.55934 11.8333 5.24992 11.8333C4.9405 11.8333 4.64375 11.9562 4.42496 12.175C4.20617 12.3938 4.08325 12.6906 4.08325 13C4.08325 13.3094 4.20617 13.6062 4.42496 13.825C4.64375 14.0437 4.9405 14.1667 5.24992 14.1667ZM5.24992 20C5.55934 20 5.85608 19.8771 6.07488 19.6583C6.29367 19.4395 6.41659 19.1428 6.41659 18.8333C6.41659 18.5239 6.29367 18.2272 6.07488 18.0084C5.85608 17.7896 5.55934 17.6667 5.24992 17.6667C4.9405 17.6667 4.64375 17.7896 4.42496 18.0084C4.20617 18.2272 4.08325 18.5239 4.08325 18.8333C4.08325 19.1428 4.20617 19.4395 4.42496 19.6583C4.64375 19.8771 4.9405 20 5.24992 20Z" fill="black"/>
</mask>
<g mask="url(#mask0_21_215)">
<path d="M-3.5 -1H24.5V27H-3.5V-1Z" fill="black"/>
</g>
</svg>
